<svg xmlns="http://www.w3.org/2000/svg" width="298" height="173.406" viewBox="0 0 298 173.406">
  <metadata><?xpacket begin="﻿" id="W5M0MpCehiHzreSzNTczkc9d"?>
<x:xmpmeta xmlns:x="adobe:ns:meta/" x:xmptk="Adobe XMP Core 5.6-c138 79.159824, 2016/09/14-01:09:01        ">
   <rdf:RDF xmlns:rdf="http://www.w3.org/1999/02/22-rdf-syntax-ns#">
      <rdf:Description rdf:about=""/>
   </rdf:RDF>
</x:xmpmeta>
                                                                                                    
                                                                                                    
                                                                                                    
                                                                                                    
                                                                                                    
                                                                                                    
                                                                                                    
                                                                                                    
                                                                                                    
                                                                                                    
                                                                                                    
                                                                                                    
                                                                                                    
                                                                                                    
                                                                                                    
                                                                                                    
                                                                                                    
                                                                                                    
                                                                                                    
                                                                                                    
                           
<?xpacket end="w"?></metadata>
<defs>
    <style>
      .cls-1 {
        fill: #2e96ef;
        fill-rule: evenodd;
      }
    </style>
  </defs>
  <path id="logo" class="cls-1" d="M186.411,119.311c14.393,8,28.007,16,30.471,18.6,3.067,3.078,22.724,17.907-6.714,59.921,0,0,34.431-30.994,25.823-79.033-14.461-7.4-62.451-36.373-69.982-44.554-4.346-5.433-10.163-12.077-15.106-22.432C146.218,61.432,142,65.934,135.8,73.338,122.886,86.768,78.47,111.391,64.009,118.8c-8.608,48.039,25.823,79.033,25.823,79.033-29.438-42.014-9.781-56.843-6.714-59.921,2.464-2.593,16.227-10.339,30.471-18.6C131.906,108.694,150.258,97.1,150.258,97.1S185.4,118.747,186.411,119.311ZM55.745,225.205S43.867,222,38.7,221.589C30.748,202.683,19.314,178.16,14.945,172,10.089,165.155,8.452,161.1,1,156.5c9.012-.71,7.305-0.254,17.56-1.55,16.4-2.852,22.931-6.921,32.537-13.43,0.413,5.889.207,9.4,2.066,14.464-6.3,3.409-20.968,9.917-24.274,15.5C32.4,185.534,34.467,198.447,55.745,225.205Zm16.01-11.881s-6.636-1.379-8.78-1.549c-3.3-7.82-12.131-26.38-13.944-28.928a30.453,30.453,0,0,0-8.263-7.751c3.741-.294,3.032-0.1,7.289-0.641,6.808-1.18,8.486-1.313,12.473-4.005,0.172,2.436,3.224,5.655,4,7.748-2.615,1.41-6.375,2.859-7.747,5.166A86.092,86.092,0,0,0,71.756,213.324Zm172.5,11.881s11.878-3.2,17.043-3.616c7.954-18.906,19.388-43.429,23.757-49.589,4.856-6.845,6.492-10.9,13.945-15.5-9.012-.71-7.305-0.254-17.56-1.55-16.4-2.852-22.931-6.921-32.537-13.43-0.413,5.889-.207,9.4-2.066,14.464,6.3,3.409,20.968,9.917,24.274,15.5C267.6,185.534,265.533,198.447,244.255,225.205Zm-16.011-11.881s6.636-1.379,8.78-1.549c3.3-7.82,12.131-26.38,13.945-28.928a30.451,30.451,0,0,1,8.263-7.751c-3.741-.294-3.032-0.1-7.289-0.641-6.808-1.18-8.485-1.313-12.473-4.005-0.171,2.436-3.223,5.655-4,7.748,2.615,1.41,6.375,2.859,7.747,5.166A86.088,86.088,0,0,1,228.244,213.324ZM149.149,173.6l-5.938-5.573c-1.422,2.975-3.354,5.471-6.443,6.709l4.766,5.207a5.138,5.138,0,0,1,2.071-.517Zm-13.561-1.435c0-.033,0-0.064.011-0.1a4.048,4.048,0,0,1,1.1-1.969l2.025-2.05a3.938,3.938,0,0,1,1.99-1.121l0.03,0,4.68-17.605-17.306-9.841-7.894,7.594,12.364,7.885-2.071,6.86-6.776,2.1L115.955,151.4l-7.5,7.993,9.72,17.522Zm12.457,10.848-0.394-.4a5.477,5.477,0,0,0-3.839-1.776,3.647,3.647,0,0,0-2.623,1.063l-30.157,27.179a5.31,5.31,0,0,0,.136,7.123l3.7,3.745a5.6,5.6,0,0,0,3.988,1.6,4.762,4.762,0,0,0,3.348-1.212L149,189.866C150.585,188.259,150.135,185.135,148.045,183.014Zm38.89,26.057-30.14-28.3-5.471,5.751a5.436,5.436,0,0,1-.614,3.436l26.5,28.951a0.859,0.859,0,0,0,.632.213c1.291,0,3.735-1.519,4.755-2.55l2.026-2.05C185.857,213.281,187.785,209.932,186.935,209.071Zm4.779-45.7a2.446,2.446,0,0,0-3.49,0l-0.97.982c-0.8-1.123-2.136-3.031-1.972-3.663,0.712-2.763-4.86-9.311-4.86-9.311-13.842-14.017-23.093-13.7-27.492-12.167-1.765.616-1.446,1,.394,1.333,13.34,2.358,15,10.331,12.742,13.41a3.692,3.692,0,0,0-.972,2.886,3.354,3.354,0,0,0,.663,1.37l-20.388,21.429a7.33,7.33,0,0,1,3.284,1.962l0.393,0.4a8.241,8.241,0,0,1,1.848,2.906l20.161-21.184a7.17,7.17,0,0,0,1.194.814,3.679,3.679,0,0,0,3.613.092c1.5-.757,5.91,2.9,7.251,3.876l0.028,0.017-0.735.742a2.521,2.521,0,0,0,0,3.534,2.445,2.445,0,0,0,3.491,0l5.817-5.89A2.521,2.521,0,0,0,191.714,163.372Z" transform="translate(-1 -51.813)"/>
</svg>
